<svg width="64" height="65" viewBox="0 0 64 65" fill="none" xmlns="http://www.w3.org/2000/svg">
<path d="M32 56.5C35.1517 56.5 38.2726 55.8792 41.1844 54.6731C44.0962 53.467 46.742 51.6992 48.9706 49.4706C51.1992 47.242 52.967 44.5962 54.1731 41.6844C55.3792 38.7726 56 35.6517 56 32.5C56 29.3483 55.3792 26.2274 54.1731 23.3156C52.967 20.4038 51.1992 17.758 48.9706 15.5294C46.742 13.3008 44.0962 11.533 41.1844 10.3269C38.2726 9.12078 35.1517 8.5 32 8.5C25.6348 8.5 19.5303 11.0286 15.0294 15.5294C10.5286 20.0303 8 26.1348 8 32.5C8 38.8652 10.5286 44.9697 15.0294 49.4706C19.5303 53.9714 25.6348 56.5 32 56.5ZM32 60.5C24.5739 60.5 17.452 57.55 12.201 52.299C6.94999 47.048 4 39.9261 4 32.5C4 25.0739 6.94999 17.952 12.201 12.701C17.452 7.44999 24.5739 4.5 32 4.5C39.4261 4.5 46.548 7.44999 51.799 12.701C57.05 17.952 60 25.0739 60 32.5C60 39.9261 57.05 47.048 51.799 52.299C46.548 57.55 39.4261 60.5 32 60.5Z" fill="#FEB81C"/>
<path d="M32 6.5C32.5304 6.5 33.0391 6.71071 33.4142 7.08579C33.7893 7.46086 34 7.96957 34 8.5V20.5C34 21.0304 33.7893 21.5391 33.4142 21.9142C33.0391 22.2893 32.5304 22.5 32 22.5C31.4696 22.5 30.9609 22.2893 30.5858 21.9142C30.2107 21.5391 30 21.0304 30 20.5V8.5C30 7.96957 30.2107 7.46086 30.5858 7.08579C30.9609 6.71071 31.4696 6.5 32 6.5ZM32 42.5C32.5304 42.5 33.0391 42.7107 33.4142 43.0858C33.7893 43.4609 34 43.9696 34 44.5V56.5C34 57.0304 33.7893 57.5391 33.4142 57.9142C33.0391 58.2893 32.5304 58.5 32 58.5C31.4696 58.5 30.9609 58.2893 30.5858 57.9142C30.2107 57.5391 30 57.0304 30 56.5V44.5C30 43.9696 30.2107 43.4609 30.5858 43.0858C30.9609 42.7107 31.4696 42.5 32 42.5ZM6 32.5C6 31.9696 6.21071 31.4609 6.58579 31.0858C6.96086 30.7107 7.46957 30.5 8 30.5H20C20.5304 30.5 21.0391 30.7107 21.4142 31.0858C21.7893 31.4609 22 31.9696 22 32.5C22 33.0304 21.7893 33.5391 21.4142 33.9142C21.0391 34.2893 20.5304 34.5 20 34.5H8C7.46957 34.5 6.96086 34.2893 6.58579 33.9142C6.21071 33.5391 6 33.0304 6 32.5ZM42 32.5C42 31.9696 42.2107 31.4609 42.5858 31.0858C42.9609 30.7107 43.4696 30.5 44 30.5H56C56.5304 30.5 57.0391 30.7107 57.4142 31.0858C57.7893 31.4609 58 31.9696 58 32.5C58 33.0304 57.7893 33.5391 57.4142 33.9142C57.0391 34.2893 56.5304 34.5 56 34.5H44C43.4696 34.5 42.9609 34.2893 42.5858 33.9142C42.2107 33.5391 42 33.0304 42 32.5Z" fill="#FEB81C"/>
</svg>
