<svg width="64" height="65" viewBox="0 0 64 65" fill="none" xmlns="http://www.w3.org/2000/svg">
<path d="M31.985 12.4454C38.4281 12.4454 44.6074 15.0049 49.1635 19.5609C53.7195 24.1169 56.279 30.2962 56.279 36.7394C56.279 43.1826 53.7195 49.3619 49.1635 53.9179C44.6074 58.4739 38.4281 61.0334 31.985 61.0334C25.5418 61.0334 19.3625 58.4739 14.8065 53.9179C10.2505 49.3619 7.69092 43.1826 7.69092 36.7394C7.69092 30.2962 10.2505 24.1169 14.8065 19.5609C19.3625 15.0049 25.5418 12.4454 31.985 12.4454ZM31.985 16.7325C26.6788 16.7325 21.59 18.8404 17.838 22.5924C14.086 26.3444 11.9781 31.4333 11.9781 36.7394C11.9781 42.0456 14.086 47.1344 17.838 50.8864C21.59 54.6384 26.6788 56.7463 31.985 56.7463C37.2911 56.7463 42.3799 54.6384 46.132 50.8864C49.884 47.1344 51.9918 42.0456 51.9918 36.7394C51.9918 31.4333 49.884 26.3444 46.132 22.5924C42.3799 18.8404 37.2911 16.7325 31.985 16.7325ZM31.985 21.0197C32.503 21.0197 33.0034 21.2073 33.3938 21.5478C33.7842 21.8883 34.0381 22.3586 34.1086 22.8718L34.1286 23.1633V36.0249C34.1284 36.568 33.9221 37.0908 33.5513 37.4876C33.1805 37.8845 32.6729 38.1258 32.1311 38.1628C31.5892 38.1998 31.0535 38.0298 30.6322 37.6871C30.2109 37.3443 29.9354 36.8544 29.8614 36.3164L29.8414 36.0249V23.1633C29.8414 22.5948 30.0672 22.0496 30.4692 21.6476C30.8712 21.2456 31.4165 21.0197 31.985 21.0197ZM52.412 12.7712L52.6492 12.9427L55.9589 15.6979C56.3733 16.0464 56.6405 16.5389 56.7067 17.0763C56.7729 17.6138 56.6333 18.1564 56.3158 18.5951C55.9984 19.0338 55.5267 19.3361 54.9955 19.4412C54.4643 19.5464 53.913 19.4466 53.4523 19.1619L53.218 18.9905L49.9054 16.2352C49.491 15.8867 49.2238 15.3942 49.1576 14.8568C49.0914 14.3194 49.2311 13.7768 49.5485 13.3381C49.8659 12.8994 50.3376 12.5971 50.8688 12.4919C51.4 12.3868 51.9513 12.4865 52.412 12.7712ZM38.4157 5.30005C38.9589 5.30022 39.4817 5.50653 39.8785 5.87731C40.2754 6.24809 40.5167 6.75569 40.5537 7.29753C40.5907 7.83938 40.4207 8.37508 40.0779 8.79639C39.7352 9.21769 39.2453 9.4932 38.7073 9.56723L38.4157 9.58723H25.5542C25.0111 9.58707 24.4883 9.38075 24.0914 9.00997C23.6946 8.63919 23.4533 8.1316 23.4162 7.58975C23.3792 7.0479 23.5493 6.5122 23.892 6.09089C24.2347 5.66959 24.7246 5.39409 25.2627 5.32006L25.5542 5.30005H38.4157Z" fill="#FEB81C"/>
</svg>
