<svg width="64" height="65" viewBox="0 0 64 65" fill="none" xmlns="http://www.w3.org/2000/svg">
<g clip-path="url(#clip0_189_34)">
<path d="M33.7321 13.5L35.4641 12.5C33.9245 9.83334 30.0755 9.83332 28.5359 12.5L6.88526 50C5.34566 52.6667 7.27015 56 10.3494 56H53.6506C56.7298 56 58.6543 52.6667 57.1147 50L35.4641 12.5L33.7321 13.5Z" stroke="#FEB81C" stroke-width="4"/>
<path d="M32.4546 25.2273C33.3047 25.2273 33.9906 25.9226 33.9791 26.7726L33.7907 40.6365C33.7808 41.3673 33.1855 41.9546 32.4546 41.9546C31.7237 41.9546 31.1285 41.3673 31.1185 40.6365L30.9302 26.7726C30.9186 25.9226 31.6045 25.2273 32.4546 25.2273ZM32.4546 48.6818C31.894 48.6818 31.413 48.4811 31.0115 48.0796C30.6099 47.6781 30.4092 47.197 30.4092 46.6364C30.4092 46.0758 30.6099 45.5947 31.0115 45.1932C31.413 44.7917 31.894 44.5909 32.4546 44.5909C33.0152 44.5909 33.4963 44.7917 33.8978 45.1932C34.2993 45.5947 34.5001 46.0758 34.5001 46.6364C34.5001 47.0076 34.4054 47.3485 34.216 47.6591C34.0342 47.9697 33.788 48.2197 33.4774 48.4091C33.1743 48.5909 32.8334 48.6818 32.4546 48.6818Z" fill="#FEB81C"/>
</g>
<defs>
<clipPath id="clip0_189_34">
<rect width="64" height="64" fill="white" transform="translate(0 0.5)"/>
</clipPath>
</defs>
</svg>
