<svg width="24" height="24" viewBox="0 0 24 24" fill="none" xmlns="http://www.w3.org/2000/svg">
<path fill-rule="evenodd" clip-rule="evenodd" d="M10.187 11.362C10.7273 11.122 11.1917 10.7389 11.53 10.254C11.8482 9.72697 12.005 9.11822 11.981 8.50302C12.0019 7.94062 11.8981 7.38056 11.677 6.86302C11.4959 6.42239 11.1987 6.03912 10.817 5.75402C10.417 5.46402 9.962 5.26702 9.484 5.17802C8.91944 5.05261 8.34228 4.99288 7.764 5.00002H1.8C1.72044 5.00002 1.64413 5.03163 1.58787 5.08789C1.53161 5.14415 1.5 5.22046 1.5 5.30002V18.641C1.5 18.7206 1.53161 18.7969 1.58787 18.8532C1.64413 18.9094 1.72044 18.941 1.8 18.941H7.9C8.484 18.941 9.066 18.863 9.63 18.708C10.1695 18.5601 10.678 18.3162 11.131 17.988C11.5784 17.6586 11.9388 17.2251 12.181 16.725C12.4546 16.1551 12.5877 15.5279 12.569 14.896C12.5898 14.1147 12.3816 13.3444 11.97 12.68C11.5426 12.0278 10.8884 11.5574 10.134 11.36H10.187V11.362ZM4.55 7.25002C4.49696 7.25002 4.44609 7.27109 4.40858 7.3086C4.37107 7.34611 4.35 7.39698 4.35 7.45002V10.55C4.35 10.66 4.44 10.75 4.55 10.75H7.35C7.81413 10.75 8.25925 10.5656 8.58744 10.2375C8.91563 9.90927 9.1 9.46415 9.1 9.00002C9.1 8.53589 8.91563 8.09078 8.58744 7.76259C8.25925 7.4344 7.81413 7.25002 7.35 7.25002H4.55ZM4.35 12.7C4.35 12.59 4.44 12.5 4.55 12.5H7.475C8.03858 12.5 8.57909 12.7239 8.9776 13.1224C9.37612 13.5209 9.6 14.0614 9.6 14.625C9.6 15.1886 9.37612 15.7291 8.9776 16.1276C8.57909 16.5261 8.03858 16.75 7.475 16.75H4.55C4.49696 16.75 4.44609 16.729 4.40858 16.6914C4.37107 16.6539 4.35 16.6031 4.35 16.55V12.7Z" fill="#EBEBEB"/>
<path d="M15.439 5.71002H20.162C20.2409 5.71001 20.3166 5.74107 20.3728 5.79647C20.4289 5.85187 20.461 5.92715 20.462 6.00602L20.475 6.96802C20.4756 7.00775 20.4682 7.0472 20.4534 7.08406C20.4385 7.12092 20.4165 7.15446 20.3886 7.18274C20.3607 7.21103 20.3274 7.23348 20.2908 7.24881C20.2541 7.26414 20.2148 7.27203 20.175 7.27202H15.439C15.3595 7.27202 15.2832 7.24041 15.2269 7.18415C15.1706 7.12789 15.139 7.05159 15.139 6.97202V6.01002C15.139 5.93046 15.1706 5.85415 15.2269 5.79789C15.2832 5.74163 15.3595 5.71002 15.439 5.71002Z" fill="#EBEBEB"/>
<path fill-rule="evenodd" clip-rule="evenodd" d="M17.9721 16.87C18.4588 16.8844 18.9371 16.7405 19.3351 16.46C19.5951 16.287 19.8021 16.04 19.9331 15.748C19.9494 15.7099 19.9765 15.6774 20.0109 15.6543C20.0453 15.6313 20.0856 15.6187 20.1271 15.618H22.0481C22.1781 15.618 22.2741 15.74 22.2351 15.864C21.9504 16.8031 21.3765 17.6284 20.5951 18.222C19.7726 18.7573 18.8059 19.0277 17.8251 18.997C17.128 19.0095 16.4356 18.8816 15.7891 18.621C15.201 18.3726 14.6774 17.9933 14.2581 17.512C13.8432 17.0121 13.5294 16.4365 13.3341 15.817C13.1011 15.1245 12.9878 14.3975 12.9991 13.667C12.9922 12.9467 13.1093 12.2306 13.3451 11.55C13.5612 10.9277 13.8999 10.3551 14.3411 9.86598C14.7751 9.39574 15.3 9.01847 15.8841 8.75698C16.5122 8.48188 17.1913 8.34218 17.8771 8.34698C18.6075 8.33613 19.329 8.50801 19.9761 8.84698C20.5681 9.17455 21.0777 9.63284 21.4661 10.187C21.8571 10.765 22.1421 11.415 22.3051 12.104C22.4734 12.8302 22.5334 13.5772 22.4831 14.321H15.5381C15.5049 15.0292 15.7366 15.7243 16.1881 16.271C16.4301 16.495 16.7141 16.664 17.0211 16.767C17.3281 16.87 17.6521 16.905 17.9721 16.87ZM15.6001 12.399C15.5999 12.4123 15.6024 12.4255 15.6075 12.4378C15.6125 12.4501 15.6199 12.4613 15.6293 12.4707C15.6387 12.4801 15.6499 12.4875 15.6623 12.4926C15.6746 12.4976 15.6878 12.5001 15.7011 12.5H19.7491C19.7758 12.5 19.8015 12.4893 19.8205 12.4704C19.8394 12.4515 19.8501 12.4258 19.8501 12.399C19.8501 11.8622 19.6368 11.3474 19.2572 10.9678C18.8777 10.5882 18.3629 10.375 17.8261 10.375H17.6241C17.0873 10.375 16.5724 10.5882 16.1929 10.9678C15.8133 11.3474 15.6001 11.8622 15.6001 12.399Z" fill="#EBEBEB"/>
</svg>
