<svg width="24" height="24" viewBox="0 0 24 24" fill="none" xmlns="http://www.w3.org/2000/svg">
<path d="M9.81741 4.77148H5.8045C4.13019 4.77148 2.77197 6.1297 2.77197 7.80483V16.9666C2.77197 18.6418 4.13019 20 5.8045 20H9.82564" stroke="#FEB81C" stroke-width="1.5" stroke-linecap="round" stroke-linejoin="round"/>
<path d="M10 11.25C9.58579 11.25 9.25 11.5858 9.25 12C9.25 12.4142 9.58579 12.75 10 12.75V11.25ZM22.5303 12.5303C22.8232 12.2374 22.8232 11.7626 22.5303 11.4697L17.7574 6.6967C17.4645 6.40381 16.9896 6.40381 16.6967 6.6967C16.4038 6.98959 16.4038 7.46447 16.6967 7.75736L20.9393 12L16.6967 16.2426C16.4038 16.5355 16.4038 17.0104 16.6967 17.3033C16.9896 17.5962 17.4645 17.5962 17.7574 17.3033L22.5303 12.5303ZM10 12.75L22 12.75V11.25L10 11.25V12.75Z" fill="#FEB81C"/>
</svg>
