<svg width="20" height="18" viewBox="0 0 20 18" fill="none" xmlns="http://www.w3.org/2000/svg">
<path d="M17 18C16.35 18 15.7667 17.8123 15.25 17.437C14.7333 17.0617 14.375 16.5827 14.175 16H9C7.9 16 6.95833 15.6083 6.175 14.825C5.39167 14.0417 5 13.1 5 12C5 10.9 5.39167 9.95833 6.175 9.175C6.95833 8.39167 7.9 8 9 8H11C11.55 8 12.021 7.804 12.413 7.412C12.805 7.02 13.0007 6.54933 13 6C13 5.45 12.804 4.979 12.412 4.587C12.02 4.195 11.5493 3.99933 11 4H5.825C5.60833 4.58333 5.24567 5.06267 4.737 5.438C4.22833 5.81333 3.64933 6.00067 3 6C2.16667 6 1.45833 5.70833 0.875 5.125C0.291667 4.54167 0 3.83333 0 3C0 2.16667 0.291667 1.45833 0.875 0.875C1.45833 0.291667 2.16667 0 3 0C3.65 0 4.22933 0.187667 4.738 0.563C5.24667 0.938333 5.60867 1.41733 5.824 2H11C12.1 2 13.0417 2.39167 13.825 3.175C14.6083 3.95833 15 4.9 15 6C15 7.1 14.6083 8.04167 13.825 8.825C13.0417 9.60833 12.1 10 11 10H9C8.45 10 7.979 10.196 7.587 10.588C7.195 10.98 6.99933 11.4507 7 12C7 12.55 7.196 13.021 7.588 13.413C7.98 13.805 8.45067 14.0007 9 14H14.175C14.3917 13.4167 14.7543 12.9373 15.263 12.562C15.7717 12.1867 16.3507 11.9993 17 12C17.8333 12 18.5417 12.2917 19.125 12.875C19.7083 13.4583 20 14.1667 20 15C20 15.8333 19.7083 16.5417 19.125 17.125C18.5417 17.7083 17.8333 18 17 18ZM3 4C3.28333 4 3.521 3.904 3.713 3.712C3.905 3.52 4.00067 3.28267 4 3C4 2.71667 3.904 2.479 3.712 2.287C3.52 2.095 3.28267 1.99933 3 2C2.71667 2 2.479 2.096 2.287 2.288C2.095 2.48 1.99933 2.71733 2 3C2 3.28333 2.096 3.521 2.288 3.713C2.48 3.905 2.71733 4.00067 3 4Z" fill="#FEB81C"/>
</svg>
