<svg width="24" height="24" viewBox="0 0 24 24" fill="none" xmlns="http://www.w3.org/2000/svg">
<g clip-path="url(#clip0_32_1278)">
<path d="M12 24C5.38286 24 0 18.6171 0 12C0 5.38286 5.38286 0 12 0C18.6171 0 24 5.38286 24 12C24 18.6171 18.6171 24 12 24ZM12 1.71429C6.32571 1.71429 1.71429 6.32571 1.71429 12C1.71429 17.6743 6.32571 22.2857 12 22.2857C17.6743 22.2857 22.2857 17.6743 22.2857 12C22.2857 6.32571 17.6743 1.71429 12 1.71429Z" fill="#FEB81C"/>
<path d="M12.008 18C12.4449 18 12.799 17.6459 12.799 17.209V10.1375C12.799 9.70062 12.4449 9.34648 12.008 9.34648C11.5712 9.34648 11.217 9.70062 11.217 10.1375V17.209C11.217 17.6459 11.5712 18 12.008 18ZM12.0001 8.01127C12.2752 8.01127 12.5115 7.91361 12.7091 7.71831C12.9031 7.51925 13.0001 7.28263 13.0001 7.00845C13.0001 6.73052 12.9031 6.4939 12.7091 6.29859C12.5115 6.09953 12.2752 6 12.0001 6C11.7249 6 11.4904 6.09953 11.2964 6.29859C11.0988 6.4939 11.0001 6.73052 11.0001 7.00845C11.0001 7.28263 11.0988 7.51925 11.2964 7.71831C11.4904 7.91361 11.7249 8.01127 12.0001 8.01127Z" fill="#FEB81C"/>
</g>
<defs>
<clipPath id="clip0_32_1278">
<rect width="24" height="24" fill="white"/>
</clipPath>
</defs>
</svg>
