<svg width="26" height="26" viewBox="0 0 26 26" fill="none" xmlns="http://www.w3.org/2000/svg">
<path d="M10.3061 11.08H6.79606C6.53435 11.08 6.28306 11.1826 6.09614 11.3658L5.70823 11.7459C5.51631 11.934 5.40816 12.1914 5.40816 12.4601V20.2H10.3061M10.3061 11.08V7.66014C10.3061 7.39142 10.4143 7.13401 10.6062 6.94593L10.9941 6.56579C11.181 6.3826 11.4323 6.28 11.694 6.28H14.7958C15.0575 6.28 15.3088 6.3826 15.4957 6.56579L15.8836 6.94593C16.0755 7.13401 16.1837 7.39142 16.1837 7.66014V13.48M10.3061 11.08V20.2M16.1837 13.48H19.6937C19.9555 13.48 20.2067 13.5826 20.3937 13.7658L20.7816 14.1459C20.9735 14.334 21.0816 14.5914 21.0816 14.8601V20.2H16.1837M16.1837 13.48V20.2M10.3061 20.2H16.1837M25 7V19C25 22.3137 22.3137 25 19 25H7C3.68629 25 1 22.3137 1 19V7C1 3.68629 3.68629 1 7 1H19C22.3137 1 25 3.68629 25 7Z" stroke="#FEB81C" stroke-width="1.5"/>
</svg>
